<svg width="100" height="99" viewBox="0 0 100 99" fill="none" xmlns="http://www.w3.org/2000/svg">
<path d="M2.01521 28.6044C0.23079 29.5759 0.187545 32.1223 1.93795 33.1539L47.0213 59.7224C48.7475 60.7396 50.9295 59.5173 50.9635 57.5139L51.1832 44.5777C66.2992 45.9522 78.3306 53.6513 88.0708 66.2208C94.1111 74.0157 98.657 95.7403 98.657 95.7403C98.752 94.2894 98.8477 92.8385 98.9435 91.3876C99.1353 88.481 99.3271 85.5743 99.5132 82.6672L99.5149 82.6395C100.944 56.8166 91.2406 27.2894 63.3551 20.575C58.6555 19.4434 55.0666 18.7656 51.6268 18.4546L51.8396 5.92297C51.8736 3.91961 49.7344 2.62386 47.9747 3.58195L2.01521 28.6044Z" fill="white"/>
</svg>
