<svg width="100" height="99" viewBox="0 0 100 99" fill="none" xmlns="http://www.w3.org/2000/svg">
<path d="M1.6692 28.6044C-0.115218 29.5759 -0.158463 32.1223 1.59194 33.1539L46.6753 59.7224C48.4015 60.7396 50.5835 59.5173 50.6175 57.5139L50.8372 44.5777C65.9532 45.9522 77.9846 53.6513 87.7248 66.2208C93.7651 74.0157 98.311 95.7403 98.311 95.7403C98.406 94.2894 98.5017 92.8385 98.5975 91.3876C98.7893 88.481 98.9811 85.5743 99.1672 82.6672L99.1689 82.6395C100.598 56.8166 90.8946 27.2894 63.0091 20.575C58.3094 19.4434 54.7206 18.7656 51.2808 18.4546L51.4936 5.92297C51.5276 3.91961 49.3884 2.62386 47.6287 3.58195L1.6692 28.6044Z" fill="#1E1E1E"/>
</svg>
